<svg width="960" height="760" viewBox="0 0 960 760" fill="none" xmlns="http://www.w3.org/2000/svg">
  <rect width="960" height="760" rx="36" fill="#F5F7F8" />
  <rect x="54" y="52" width="852" height="656" rx="30" fill="#FFFFFF" />
  <path d="M116 557C208 483 291 492 373 419C455 346 523 355 598 290C673 225 742 146 848 92" stroke="#16324F" stroke-width="3" stroke-opacity="0.08" stroke-linecap="round" />
  <path d="M97 500C182 428 260 435 338 364C416 293 488 300 565 238C642 176 721 114 835 64" stroke="#5B7C63" stroke-width="2.6" stroke-opacity="0.1" stroke-linecap="round" />
  <rect x="110" y="114" width="292" height="484" rx="28" fill="url(#paint0_linear)" />
  <circle cx="256" cy="247" r="78" fill="#D8E4E8" />
  <path d="M256 347C191 347 138 401 138 468V598H374V468C374 401 321 347 256 347Z" fill="#16324F" />
  <rect x="470" y="154" width="318" height="78" rx="18" fill="#16324F" fill-opacity="0.06" />
  <rect x="470" y="270" width="366" height="22" rx="11" fill="#16324F" fill-opacity="0.12" />
  <rect x="470" y="315" width="314" height="22" rx="11" fill="#5B7C63" fill-opacity="0.18" />
  <rect x="470" y="360" width="352" height="22" rx="11" fill="#16324F" fill-opacity="0.09" />
  <rect x="470" y="421" width="272" height="104" rx="22" fill="#5B7C63" fill-opacity="0.10" />
  <circle cx="529" cy="473" r="26" fill="#5B7C63" fill-opacity="0.22" />
  <path d="M518 473H540" stroke="#5B7C63" stroke-width="4" stroke-linecap="round" />
  <path d="M529 462V484" stroke="#5B7C63" stroke-width="4" stroke-linecap="round" />
  <rect x="766" y="421" width="84" height="104" rx="22" fill="#16324F" fill-opacity="0.08" />
  <path d="M808 445V501" stroke="#16324F" stroke-width="4" stroke-linecap="round" />
  <path d="M780 473H836" stroke="#16324F" stroke-width="4" stroke-linecap="round" />
  <rect x="470" y="560" width="182" height="50" rx="18" fill="#16324F" />
  <defs>
    <linearGradient id="paint0_linear" x1="256" y1="114" x2="256" y2="598" gradientUnits="userSpaceOnUse">
      <stop stop-color="#EAF0F2" />
      <stop offset="1" stop-color="#DDE8EC" />
    </linearGradient>
  </defs>
</svg>
